<svg fill="none" height="811" viewBox="0 0 1512 811" width="1512" xmlns="http://www.w3.org/2000/svg"><path d="m137.455.480469c-54.9823 0-68.7277 22.663631-137.455 22.663631v787.3359h1512v-809.999531c-68.73 0-68.73 22.663631-137.45 22.663631-68.73 0-68.73-22.663631-137.46-22.663631s-68.73 22.663631-137.45 22.663631c-68.73 0-68.73-22.663631-137.458-22.663631-68.727 0-68.727 22.663631-137.455 22.663631-68.727 0-68.727-22.663631-137.454-22.663631-68.728 0-68.728 22.663631-137.455 22.663631s-68.727-22.663631-137.454-22.663631c-68.728 0-68.728 22.663631-137.455 22.663631s-68.727-22.663631-137.454-22.663631z" fill="#F1F1FF"></path></svg>