<svg fill="none" height="348" viewBox="0 0 593 348" width="593" xmlns="http://www.w3.org/2000/svg"><rect fill="#fbfbb3" height="347" rx="9.5" width="592" x=".5" y=".5"/><rect height="93" rx="20" style="fill:#009e5c;fill-opacity:.6;stroke:#009e5c;stroke-width:2;stroke-linecap:round;stroke-dasharray:8 10" transform="matrix(1 0 0 -1 69 301.355)" width="463"/><path d="m115.199 231.78c12.827 0 23.199 10.475 23.199 23.363s-10.372 23.363-23.199 23.363-23.199-10.475-23.199-23.363 10.372-23.363 23.199-23.363z" fill="#fff" stroke="#009e5c" stroke-width="4"/><path d="m98.6883 253.921 15.2437-10.126c.601-.386 1.538-.386 2.139 0l15.244 10.126c.913.603.913 1.591 0 2.194l-2.044 1.35c-3.005-4.75-8.295-7.884-14.282-7.884-6.01 0-11.276 3.158-14.281 7.884l-2.0438-1.35c-.8896-.603-.8896-1.616.0241-2.194zm16.3007-.121c-4.544 0-8.511 2.411-10.771 5.979l3.511 2.339c1.49-2.459 4.159-4.099 7.237-4.099 3.053 0 5.746 1.64 7.237 4.099l3.51-2.339c-2.188-3.568-6.179-5.979-10.724-5.979zm0 8.463c-1.586 0-2.981.892-3.726 2.193l2.356 1.543c.385.314.842.507 1.37.507.529 0 1.01-.193 1.371-.507l2.356-1.543c-.697-1.277-2.116-2.193-3.727-2.193z" fill="#212121"/><ellipse cx="175.598" cy="255.143" fill="#fff" fill-opacity=".7" rx="21.1991" ry="21.3627"/><path d="m175.598 277.574c12.305 0 22.267-10.051 22.267-22.431 0-12.381-9.962-22.431-22.267-22.431-12.306 0-22.268 10.05-22.268 22.431 0 12.38 9.962 22.431 22.268 22.431z" stroke="#fff" stroke-opacity=".7" stroke-width="2.13648"/><path d="m163.352 245.78c-.282 0-.552.06-.793.173l12.209 11.066c.3.271.962.271 1.261 0l12.21-11.066c-.242-.113-.512-.173-.794-.173zm-1.74 1.136c-.134.282-.214.602-.214.941v13.846c0 .342.077.668.214.952l9.096-7.496zm27.573 0-9.096 8.243 9.096 7.495c.137-.284.213-.609.213-.952v-13.845c0-.339-.079-.659-.213-.941zm-17.46 9.162-9.146 7.54c.236.107.499.162.773.162h24.093c.274 0 .537-.055.774-.162l-9.147-7.54-2.198 1.991c-.844.765-2.106.765-2.95 0z" fill="#262626"/><ellipse cx="235.996" cy="255.143" fill="#fff" fill-opacity=".7" rx="21.1991" ry="21.3627"/><path d="m235.996 277.574c12.306 0 22.267-10.051 22.267-22.431 0-12.381-9.961-22.431-22.267-22.431s-22.267 10.05-22.267 22.431c0 12.38 9.961 22.431 22.267 22.431z" stroke="#fff" stroke-opacity=".7" stroke-width="2.13648"/><path d="m244.286 242.78h-16.988c-2.484 0-4.501 1.939-4.501 4.327v16.329c0 2.388 2.017 4.327 4.501 4.327h1.898 5.84v-3.578c0-3.446-.44-6.098-3.108-6.856v-2.82c4.336.37 6.491 3.472 6.491 8.574v4.697h3.529 2.347c2.485 0 4.502-1.938 4.502-4.326v-16.347c-.009-2.388-2.026-4.327-4.511-4.327zm-8.361 9.024c-1.375 0-2.493-1.075-2.493-2.397s1.118-2.397 2.493-2.397 2.485 1.075 2.485 2.406c0 1.322-1.11 2.388-2.485 2.388z" fill="#262626"/><path d="m296.393 278.506c12.827 0 23.2-10.475 23.2-23.363s-10.373-23.363-23.2-23.363-23.199 10.475-23.199 23.363 10.372 23.363 23.199 23.363z" fill="#fff" stroke="#009e5c" stroke-width="4"/><path clip-rule="evenodd" d="m301.155 244.519 7.437 14.622c.312.6.508 1.258.576 1.937.067.679.006 1.366-.182 2.02s-.498 1.263-.912 1.791-.924.965-1.5 1.286c-.577.321-1.209.519-1.859.583-.65.063-1.306-.008-1.93-.211s-1.203-.533-1.704-.971c-.5-.439-.913-.977-1.214-1.583 0 0-4.331-8.489-5.436-10.71-.247-.509-.596-.957-1.023-1.312s-.923-.61-1.453-.746c-.53-.137-1.082-.152-1.618-.045s-1.044.335-1.489.666c-.04.046-.097.073-.157.076-.06.002-.118-.021-.162-.063-.044-.043-.07-.102-.072-.165-.002-.062.019-.123.06-.169l4.009-7.182c.443-.794 1.081-1.451 1.849-1.901.767-.451 1.635-.679 2.515-.661s1.739.281 2.489.763c.749.481 1.363 1.163 1.776 1.975zm-11.527 22.212c1.075 0 2.126-.333 3.02-.957.893-.624 1.59-1.512 2.001-2.55s.519-2.181.309-3.283c-.209-1.102-.727-2.115-1.487-2.909-.76-.795-1.728-1.336-2.782-1.555-1.054-.22-2.147-.107-3.14.323s-1.842 1.158-2.439 2.093c-.597.934-.916 2.033-.916 3.156.001 1.507.574 2.952 1.593 4.018 1.019 1.065 2.4 1.664 3.841 1.664z" fill="#212121" fill-rule="evenodd"/><ellipse cx="356.792" cy="255.143" fill="#fff" fill-opacity=".7" rx="21.1991" ry="21.3627"/><path d="m356.792 277.574c12.306 0 22.267-10.051 22.267-22.431 0-12.381-9.961-22.431-22.267-22.431s-22.267 10.05-22.267 22.431c0 12.38 9.961 22.431 22.267 22.431z" stroke="#fff" stroke-opacity=".7" stroke-width="2.13648"/><path clip-rule="evenodd" d="m341.593 247.809 6.036 3.238-6.036 3.239 11.253 6.022v4.014l18.747-10.055-6.015-3.219 6.015-3.22-14.997-8.048zm18.747 10.055-11.042-5.922-4.376 2.351 9.468 5.058v2.355l13.883-7.446-4.355-2.324-3.578 1.915zm-1.543-2.615-13.883-7.446 11.683-6.236 11.668 6.269-9.468 5.057z" fill="#262626" fill-rule="evenodd"/><path d="m349.267 258.395-1.659-.889-6.015 3.22 18.747 10.054v-4.013l11.253-6.022-6.036-3.24-1.67.896 4.377 2.351-9.469 5.057v2.356l-13.882-7.446z" fill="#262626"/><ellipse cx="417.19" cy="255.143" fill="#fff" fill-opacity=".7" rx="21.1991" ry="21.3627"/><path d="m417.19 277.574c12.306 0 22.268-10.051 22.268-22.431 0-12.381-9.962-22.431-22.268-22.431-12.305 0-22.267 10.05-22.267 22.431 0 12.38 9.962 22.431 22.267 22.431z" stroke="#fff" stroke-opacity=".7" stroke-width="2.13648"/><path d="m415.031 247.592h-4.365c2.029-2.79 4.795-5.952 6.824-7.812 2.029 1.798 5.287 5.456 6.885 7.812h-4.365l-2.52-3.348z" fill="#262626"/><path d="m412.879 253.172c0 1.301-1.046 2.356-2.336 2.356-1.291 0-2.337-1.055-2.337-2.356s1.046-2.356 2.337-2.356c1.29 0 2.336 1.055 2.336 2.356z" fill="#262626"/><path d="m419.887 253.172c0 1.301-1.045 2.356-2.336 2.356-1.29 0-2.336-1.055-2.336-2.356s1.046-2.356 2.336-2.356c1.291 0 2.336 1.055 2.336 2.356z" fill="#262626"/><path d="m426.773 253.172c0 1.301-1.046 2.356-2.336 2.356s-2.336-1.055-2.336-2.356 1.046-2.356 2.336-2.356 2.336 1.055 2.336 2.356z" fill="#262626"/><path d="m405.993 258.504v.062c-.123 7.13 5.148 12.214 11.497 12.214s11.681-5.27 11.497-11.718c0-.187-.005-.373-.013-.558h-3.383c.009.164.014.33.014.496 0 4.554-3.381 8.122-8.055 8.308-4.364 0-8.199-3.577-8.113-8.595 0-.07.001-.139.003-.209z" fill="#262626"/><ellipse cx="477.589" cy="255.143" fill="#fff" fill-opacity=".7" rx="21.1991" ry="21.3627"/><path d="m477.589 277.574c12.305 0 22.267-10.051 22.267-22.431 0-12.381-9.962-22.431-22.267-22.431-12.306 0-22.268 10.05-22.268 22.431 0 12.38 9.962 22.431 22.268 22.431z" stroke="#fff" stroke-opacity=".7" stroke-width="2.13648"/><path d="m465.008 265c-.004-.077-.009-.127-.009-.178 0-3.25.001-6.502.002-9.753 0-1.317.226-2.595.764-3.812.62-1.403 1.569-2.556 2.803-3.494 1.144-.87 2.429-1.475 3.804-1.909.912-.283 1.847-.491 2.795-.622.869-.123 1.742-.182 2.617-.218.706-.026 1.413-.016 2.117.028.704.039 1.408.104 2.105.203 1.494.213 2.946.578 4.325 1.191 1.134.503 2.166 1.151 3.053 2.008 1.143 1.104 1.895 2.423 2.289 3.937.26 1.018.365 2.067.313 3.114-.063 1.44-.393 2.817-1.09 4.099-.758 1.395-1.849 2.485-3.222 3.315-1.195.723-2.494 1.192-3.859 1.508-.759.18-1.531.308-2.308.382-.608.055-1.218.121-1.828.131-1.753.026-3.507.028-5.26.035-2.078.009-4.155.015-6.233.018-.99.004-1.977.011-2.966.017zm11.892-12.962c-.025-.255-.051-.694-.114-1.13-.08-.596-.26-1.176-.534-1.716-.168-.324-.373-.623-.665-.856-.456-.365-.965-.378-1.439-.036-.26.187-.45.435-.607.706-.466.804-.651 1.686-.72 2.593-.048.611-.026 1.225.066 1.832.095.619.253 1.221.538 1.786.163.325.365.628.656.863.187.151.396.265.645.29.382.039.689-.109.957-.354.359-.329.58-.745.755-1.186.332-.838.442-1.715.462-2.792zm7.206.104c.016-.46-.044-.989-.149-1.512-.114-.57-.29-1.12-.59-1.625-.184-.311-.404-.593-.725-.784-.366-.217-.741-.226-1.119-.02-.173.097-.328.224-.455.375-.214.251-.388.532-.516.834-.338.76-.483 1.563-.525 2.384-.04.715.017 1.432.171 2.132.127.562.309 1.103.622 1.595.184.29.403.551.718.718.353.187.706.184 1.059-.004.21-.118.392-.277.535-.466.263-.329.444-.701.582-1.091.282-.797.401-1.62.391-2.535z" fill="#212121"/><path clip-rule="evenodd" d="m110.016 139c-7.345 0-13.3207-6.056-13.3207-13.5s5.9757-13.5 13.3207-13.5c7.344 0 13.32 6.056 13.32 13.5s-5.976 13.5-13.32 13.5zm1.332-20.25c0-.746-.597-1.35-1.332-1.35-.736 0-1.332.604-1.332 1.35v6.75c0 .358.14.701.39.955l3.996 4.05c.52.527 1.363.527 1.884 0 .52-.528.52-1.382 0-1.91l-3.606-3.654z" fill="#14854d" fill-rule="evenodd"/><circle fill="#fff" r="5" stroke="#14854d" stroke-width="4" transform="matrix(1 0 0 -1 293 207)"/><path d="m109.5 200.355c0 .829.672 1.5 1.5 1.5s1.5-.671 1.5-1.5zm1.5-51-8.66 15h17.32zm1.5 51v-37.5h-3v37.5z" fill="#14854d"/><path d="m291.999 201.5c0 .828.672 1.5 1.5 1.5.829 0 1.5-.672 1.5-1.5zm-180.999-52-8.66 15h17.32zm16.03 34.978-.004-1.5zm-16.03-15.978h-1.5zm183.999 33c0-5.984-1.18-10.612-5.821-13.744-4.402-2.971-11.703-4.413-23.222-5.116-23.146-1.413-64.894.13-138.93.338l.008 3c74.229-.208 115.716-1.749 138.739-.344 11.565.706 18.082 2.148 21.726 4.608 3.406 2.298 4.5 5.647 4.5 11.258zm-182.499-33v-5.5h-3v5.5zm14.526 14.478c-8.008.022-14.526-6.472-14.526-14.478h-3c0 9.668 7.869 17.505 17.534 17.478z" fill="#14854d"/><circle cx="111" cy="207" fill="#fff" r="5" stroke="#14854d" stroke-width="4"/><path d="m115.385 101.387c.41-7.4966 5.43-22.4459 22.229-22.2737" stroke="#079650" stroke-linecap="round" stroke-width="4"/><path d="m147 65.8067c0-3.7592 3.047-6.8067 6.807-6.8067h184.386c3.76 0 6.807 3.0475 6.807 6.8067v39.3863c0 3.76-3.047 6.807-6.807 6.807h-191.193z" fill="#212121"/><g fill="#fff"><path d="m199.001 75.7086 2.82 5.9099 6.492.8558-4.749 4.5083 1.193 6.4388-5.756-3.1236-5.755 3.1236 1.192-6.4388-4.749-4.5083 6.492-.8558z"/><path d="m222.5 75.7086 2.82 5.9099 6.493.8558-4.75 4.5083 1.193 6.4388-5.756-3.1236-5.755 3.1236 1.192-6.4388-4.749-4.5083 6.492-.8558z"/><path d="m246 75.7086 2.82 5.9099 6.493.8558-4.75 4.5083 1.193 6.4388-5.756-3.1236-5.755 3.1236 1.192-6.4388-4.749-4.5083 6.492-.8558z"/><path d="m269.499 75.7086 2.82 5.9099 6.493.8558-4.75 4.5083 1.193 6.4388-5.756-3.1236-5.755 3.1236 1.192-6.4388-4.749-4.5083 6.492-.8558z"/><path d="m292.998 75.7086 2.82 5.9099 6.493.8558-4.75 4.5083 1.193 6.4388-5.756-3.1236-5.755 3.1236 1.192-6.4388-4.749-4.5083 6.492-.8558z"/><path d="m153.5 59.8067c0-3.4831 2.824-6.3067 6.307-6.3067h184.386c3.483 0 6.307 2.8236 6.307 6.3067v39.3866c0 3.4827-2.824 6.3067-6.307 6.3067h-190.693z"/></g><path d="m184 69.161 2.861 5.9955.117.2449.269.0355 6.586.8682-4.818 4.5736-.197.1868.05.2668 1.209 6.5321-5.838-3.1688-.239-.1295-.239.1295-5.838 3.1688 1.209-6.5321.05-.2668-.197-.1868-4.818-4.5736 6.586-.8682.269-.0355.117-.2449z" stroke="#212121"/><path d="m218 69.161 2.861 5.9955.117.2449.269.0355 6.586.8682-4.818 4.5736-.197.1868.05.2668 1.209 6.5321-5.838-3.1688-.239-.1295-.239.1295-5.838 3.1688 1.209-6.5321.05-.2668-.197-.1868-4.818-4.5736 6.586-.8682.269-.0355.117-.2449z" stroke="#212121"/><path d="m252 69.161 2.861 5.9955.117.2449.269.0355 6.586.8682-4.818 4.5736-.197.1868.05.2668 1.209 6.5321-5.838-3.1688-.239-.1295-.239.1295-5.838 3.1688 1.209-6.5321.05-.2668-.197-.1868-4.818-4.5736 6.586-.8682.269-.0355.117-.2449z" stroke="#212121"/><path d="m286 69.161 2.861 5.9955.117.2449.269.0355 6.586.8682-4.818 4.5736-.197.1868.05.2668 1.209 6.5321-5.838-3.1688-.239-.1295-.239.1295-5.838 3.1688 1.209-6.5321.05-.2668-.197-.1868-4.818-4.5736 6.586-.8682.269-.0355.117-.2449z" stroke="#212121"/><path d="m320 69.161 2.861 5.9955.117.2449.269.0355 6.586.8682-4.818 4.5736-.197.1868.05.2668 1.209 6.5321-5.838-3.1688-.239-.1295-.239.1295-5.838 3.1688 1.209-6.5321.05-.2668-.197-.1868-4.818-4.5736 6.586-.8682.269-.0355.117-.2449z" stroke="#212121"/><path d="m153.5 59.8067c0-3.4831 2.824-6.3067 6.307-6.3067h184.386c3.483 0 6.307 2.8236 6.307 6.3067v39.3866c0 3.4827-2.824 6.3067-6.307 6.3067h-190.693z" stroke="#000"/><rect height="347" rx="9.5" stroke="#212121" width="592" x=".5" y=".5"/></svg>