<svg fill="none" height="348" viewBox="0 0 593 348" width="593" xmlns="http://www.w3.org/2000/svg" xmlns:xlink="http://www.w3.org/1999/xlink"><filter id="a" color-interpolation-filters="sRGB" filterUnits="userSpaceOnUse" height="73.578" width="211.932" x="153.576" y="52.0209"><feFlood flood-opacity="0" result="BackgroundImageFix"/><feBlend in="SourceGraphic" in2="BackgroundImageFix" mode="normal" result="shape"/><feColorMatrix in="SourceAlpha" result="hardAlpha" type="matrix" values="0 0 0 0 0 0 0 0 0 0 0 0 0 0 0 0 0 0 127 0"/><feOffset dy="-.535841"/><feGaussianBlur stdDeviation=".0535841"/><feComposite in2="hardAlpha" k2="-1" k3="1" operator="arithmetic"/><feColorMatrix type="matrix" values="0 0 0 0 0.882353 0 0 0 0 0.886275 0 0 0 0 0.890196 0 0 0 1 0"/><feBlend in2="shape" mode="normal" result="effect1_innerShadow_808_8269"/></filter><filter id="b" color-interpolation-filters="sRGB" filterUnits="userSpaceOnUse" height="411.217" width="330.862" x="95.0176" y="94.9547"><feFlood flood-opacity="0" result="BackgroundImageFix"/><feBlend in="SourceGraphic" in2="BackgroundImageFix" mode="normal" result="shape"/><feColorMatrix in="SourceAlpha" result="hardAlpha" type="matrix" values="0 0 0 0 0 0 0 0 0 0 0 0 0 0 0 0 0 0 127 0"/><feOffset dy="-.535841"/><feComposite in2="hardAlpha" k2="-1" k3="1" operator="arithmetic"/><feColorMatrix type="matrix" values="0 0 0 0 0.129412 0 0 0 0 0.129412 0 0 0 0 0.129412 0 0 0 1 0"/><feBlend in2="shape" mode="normal" result="effect1_innerShadow_808_8269"/></filter><clipPath id="c"><rect height="348" rx="10" width="593"/></clipPath><clipPath id="d"><path d="m160.035 51.9603 205.451 31.5733-61.713 401.5784c-.561 3.65-3.975 6.154-7.625 5.593l-192.233-29.542c-3.65-.561-6.1544-3.974-5.5935-7.624z"/></clipPath><clipPath id="e"><path d="m403.117 104.121h17.4768v17.4768h-17.4768z"/></clipPath><clipPath id="f"><path d="m474.781 135.781h22.5814v22.5814h-22.5814z"/></clipPath><g clip-path="url(#c)"><rect fill="#cef9e3" height="348" rx="10" width="593"/><rect fill="#51556f" height="442.08" rx="10.8651" transform="matrix(.98839669 .15189464 -.15189464 .98839669 6.840428 -24.99311)" width="213.721" x="167.008" y="32.2762"/><rect fill="#fff" height="441.49" rx="8.87782" stroke="#51556f" stroke-width="1.04017" transform="matrix(.98839669 .15189464 -.15189464 .98839669 5.307 -24.65817)" width="208.903" x="164.049" y="22.4069"/><g clip-path="url(#d)"><path d="m160.035 51.9603 205.451 31.5733-61.713 401.5784c-.561 3.65-3.975 6.154-7.625 5.593l-192.233-29.542c-3.65-.561-6.1544-3.974-5.5935-7.624z" fill="#fff"/><path d="m0 0h207.906v412.597h-207.906z" fill="#f9f9f9" transform="matrix(.98839669 .15189464 -.15189464 .98839669 160.013 52.1282)"/><path d="m0 0h207.906v412.597h-207.906z" fill="#5e9c2b" fill-opacity=".02" transform="matrix(.98839669 .15189464 -.15189464 .98839669 160.013 52.1282)"/><g filter="url(#a)"><path d="m0 0h207.906v42.3828h-207.906z" fill="#fff" transform="matrix(.98839669 .15189464 -.15189464 .98839669 160.014 52.1281)"/><path clip-rule="evenodd" d="m191.238 65.4839c7.226 1.2838 12.061 8.2078 10.777 15.4338s-8.208 12.0607-15.434 10.7769c-7.226-1.2839-12.061-8.2079-10.777-15.4338 1.284-7.226 8.208-12.0608 15.434-10.7769zm4.686 21.1112c-2.349 2.0537-5.573 3.0654-8.877 2.4784s-5.983-2.6476-7.48-5.3848c2.349-2.0537 5.573-3.0654 8.877-2.4784 3.304.5869 5.982 2.6476 7.48 5.3848zm-7.014-8.0059c2.171.3858 4.244-1.0617 4.63-3.233.386-2.1714-1.062-4.2444-3.233-4.6302-2.172-.3858-4.245 1.0617-4.63 3.2331-.386 2.1713 1.061 4.2443 3.233 4.6301z" fill="#212121" fill-rule="evenodd"/></g><g filter="url(#b)"><path d="m0 0h208.825v369.291h-208.825z" fill="#fff" transform="matrix(.98839669 .15189464 -.15189464 .98839669 153.07 95.0352)"/><path d="m0 0h208.978v46.4639h-208.978z" fill="#fff" transform="matrix(.98839669 .15189464 -.15189464 .98839669 154.205 95.0214)"/><path d="m166.195 117.123 1.339.205 1.455 6.044.086.013 3.202-5.328 1.339.206-1.124 7.314-1.05-.161.814-5.293-.068-.01-2.969 4.95-.872-.134-1.344-5.617-.068-.01-.814 5.296-1.05-.161zm8.175 10.849c-.16-.025-.303-.06-.43-.107-.127-.043-.221-.085-.281-.123l.392-.836c.187.083.358.132.511.148.153.017.297-.02.43-.109.135-.089.267-.248.395-.477l.188-.344-1.153-5.865 1.143.175.735 4.471.057.009 2.043-4.044 1.147.176-3.216 5.871c-.149.269-.32.491-.512.663-.192.175-.408.296-.648.361-.239.066-.506.076-.801.031zm7.999-.877.843-5.486 1.032.159-.134.872.058.008c.145-.28.357-.485.635-.615.281-.132.582-.174.904-.124.067.01.145.025.235.043.092.019.163.036.215.052l-.157 1.021c-.041-.019-.116-.043-.223-.074-.107-.034-.215-.059-.325-.076-.252-.039-.485-.02-.699.057-.212.075-.389.197-.532.368-.143.168-.233.371-.269.609l-.515 3.35zm6.011 1.037c-.541-.083-.988-.27-1.343-.561-.353-.293-.602-.666-.749-1.12-.145-.456-.173-.969-.086-1.538.086-.562.267-1.041.543-1.437.278-.396.624-.685 1.04-.868.418-.182.881-.233 1.391-.155.309.047.602.145.876.292.275.147.511.348.708.602.198.255.336.567.416.938.079.368.081.801.005 1.298l-.058.379-4.361-.67.123-.8 3.314.509c.043-.281.024-.539-.057-.773-.08-.236-.214-.434-.402-.592-.186-.157-.416-.257-.693-.3-.3-.046-.573-.012-.819.101-.244.111-.445.275-.602.492-.155.215-.254.46-.296.733l-.096.625c-.056.367-.04.689.049.966.092.277.243.502.456.673.213.169.475.278.787.326.202.031.391.031.567-.001.176-.034.333-.1.473-.198.139-.098.254-.227.345-.389l.982.337c-.126.286-.312.524-.556.716-.241.189-.528.322-.861.397-.331.074-.696.08-1.096.018zm5.849.899c-.531-.081-.97-.272-1.316-.571-.344-.302-.585-.681-.724-1.139-.14-.458-.167-.961-.082-1.511.085-.558.265-1.033.54-1.427.276-.396.623-.686 1.04-.868.418-.181.886-.233 1.402-.153.417.064.777.198 1.079.403.303.203.533.457.69.764.16.307.231.649.212 1.023l-1.039-.159c-.018-.266-.114-.508-.291-.725-.174-.217-.431-.351-.771-.404-.298-.045-.571-.007-.819.116-.245.121-.451.316-.619.585-.168.266-.282.595-.342.985-.062.4-.054.755.023 1.064s.214.561.41.754c.2.194.451.314.753.361.202.031.391.022.567-.026.178-.051.334-.138.468-.261.136-.123.241-.28.317-.471l1.039.16c-.092.349-.256.648-.492.897s-.528.428-.876.538c-.346.11-.736.132-1.169.065zm5.76.885c-.541-.083-.988-.27-1.343-.561-.353-.293-.602-.666-.749-1.12-.145-.456-.173-.969-.086-1.538.087-.562.267-1.041.543-1.437.278-.396.624-.685 1.04-.868.418-.182.881-.233 1.391-.155.309.047.602.145.876.292.275.147.511.348.708.602.198.255.336.567.416.938.08.368.081.801.005 1.298l-.058.379-4.361-.67.123-.8 3.314.509c.043-.281.024-.538-.057-.773-.08-.236-.214-.434-.402-.592-.186-.157-.416-.257-.693-.3-.3-.046-.573-.012-.819.101-.244.111-.445.275-.602.492-.155.215-.254.46-.296.734l-.096.625c-.056.366-.04.688.049.965.092.277.244.502.456.673.213.169.475.278.787.326.203.031.391.031.567-.001.176-.034.333-.1.473-.198.139-.098.254-.227.345-.389l.982.337c-.126.286-.312.524-.556.716-.241.189-.528.322-.861.397-.331.074-.696.08-1.096.018zm5.124-2.66-.501 3.258-1.068-.165.843-5.485 1.025.157-.137.893.068.01c.171-.271.404-.474.7-.608.299-.135.654-.17 1.066-.107.374.057.689.186.946.386.257.198.44.463.547.794.108.331.127.722.057 1.175l-.536 3.489-1.068-.164.517-3.361c.061-.397.005-.724-.168-.98-.172-.258-.439-.415-.801-.47-.248-.038-.476-.018-.686.059-.207.078-.382.212-.526.402-.141.188-.234.427-.278.717zm7.846-1.075-.132.857-2.996-.46.131-.858zm-1.991-1.651 1.068.164-.798 5.189c-.031.207-.024.368.021.482.046.112.115.195.207.248.095.051.2.085.317.103.086.013.162.019.228.017s.117-.004.154-.006l.057.912c-.065.014-.157.025-.275.031-.118.009-.263.001-.435-.023-.282-.038-.536-.129-.763-.271-.226-.142-.398-.334-.514-.576-.117-.242-.149-.529-.099-.86zm4.675 9.784 1.159-7.543 1.043.161-.137.889.089.014c.08-.105.189-.223.329-.356.14-.132.322-.238.546-.318.225-.082.507-.097.848-.045.443.068.821.241 1.134.518s.536.642.669 1.094c.135.452.157.974.066 1.567s-.268 1.086-.53 1.48c-.263.391-.584.674-.965.849-.38.174-.791.226-1.234.158-.333-.051-.597-.149-.792-.293-.192-.145-.336-.301-.432-.469s-.168-.316-.214-.442l-.064-.01-.448 2.911zm1.784-4.639c-.06.386-.056.733.012 1.04.067.308.194.56.381.757.187.195.434.315.741.363.319.049.599.005.839-.131.24-.139.438-.346.593-.622.156-.276.263-.597.319-.963.056-.362.051-.696-.014-1.001-.063-.304-.19-.556-.381-.756-.189-.2-.444-.324-.765-.374-.31-.047-.584-.008-.823.119-.236.127-.431.325-.584.593-.154.269-.26.594-.318.975zm8.564 1.795.493-3.211 1.071.165-.843 5.486-1.05-.162.146-.95-.057-.008c-.171.273-.411.486-.719.639-.306.15-.665.194-1.077.13-.352-.054-.652-.179-.9-.376-.245-.198-.421-.463-.529-.794-.105-.33-.123-.722-.053-1.174l.536-3.49 1.068.164-.517 3.361c-.057.374.001.688.174.941s.425.405.756.456c.2.031.406.011.619-.058.216-.07.405-.195.567-.378.164-.181.269-.429.315-.741zm2.156 2.66.843-5.485 1.032.158-.133.872.057.008c.145-.279.357-.485.635-.615.281-.132.583-.174.904-.124.067.01.145.025.235.043.092.019.164.036.215.052l-.157 1.021c-.041-.018-.115-.043-.223-.074-.107-.034-.215-.059-.324-.076-.253-.039-.486-.02-.7.057-.211.075-.389.198-.532.368-.143.168-.232.371-.269.609l-.515 3.35zm5.957 1.029c-.531-.081-.969-.272-1.316-.571-.343-.302-.585-.681-.724-1.139s-.167-.961-.082-1.511c.086-.558.266-1.033.541-1.427.275-.397.622-.686 1.04-.868s.885-.233 1.402-.153c.416.064.776.198 1.078.403.303.203.533.457.691.764.16.307.23.649.212 1.023l-1.039-.159c-.018-.266-.115-.508-.291-.725-.174-.217-.431-.351-.772-.404-.297-.045-.57-.007-.818.116-.245.121-.452.316-.62.585-.168.266-.282.595-.342.985-.061.4-.053.755.023 1.064.077.309.214.561.411.754.199.194.45.314.752.361.203.031.392.022.567-.027.179-.05.335-.137.468-.26.136-.123.242-.28.317-.471l1.04.16c-.093.349-.257.648-.493.897-.235.249-.527.428-.876.538-.346.11-.735.132-1.169.065zm4.981-2.682-.5 3.257-1.068-.164 1.124-7.314 1.054.162-.419 2.721.068.011c.174-.276.407-.48.698-.613.291-.134.649-.167 1.075-.102.377.058.693.186.951.384.259.198.443.463.55.794.111.329.131.722.06 1.179l-.536 3.489-1.068-.164.517-3.361c.061-.402.006-.73-.167-.983-.173-.256-.444-.412-.813-.469-.252-.039-.487-.02-.703.057-.214.076-.394.21-.541.399-.143.188-.237.427-.282.717zm6.06 4.39c-.348-.054-.652-.166-.913-.338-.261-.174-.455-.398-.581-.67-.124-.273-.158-.589-.103-.948.048-.31.146-.556.296-.737.15-.182.335-.316.555-.401.221-.086.46-.139.719-.16.26-.021.521-.027.786-.019.334.013.605.023.814.031.209.005.364-.014.466-.057.101-.043.162-.128.182-.257l.004-.025c.047-.312-.004-.567-.153-.766-.148-.198-.394-.323-.739-.376-.36-.056-.656-.019-.887.108-.229.126-.398.279-.506.46l-.968-.383c.17-.315.385-.557.645-.727.263-.172.551-.281.866-.328.314-.049.637-.048.968.003.219.034.447.096.684.186.24.088.457.216.651.385.195.169.343.39.442.664.1.271.119.607.058 1.007l-.56 3.642-1.043-.16.115-.75-.043-.006c-.09.127-.214.247-.373.359s-.353.196-.583.25c-.23.055-.497.059-.799.013zm.364-.822c.295.046.556.026.784-.058.23-.084.414-.212.552-.383.141-.174.229-.369.262-.585l.109-.707c-.044.032-.124.056-.238.073-.112.014-.239.023-.381.025-.141 0-.279 0-.413-.001-.133-.003-.245-.006-.335-.008-.211-.005-.407.01-.588.045-.179.036-.328.105-.448.206-.118.098-.191.243-.221.434-.04.264.027.479.201.645.175.163.413.268.716.314zm8.532-2.18-.994.023c-.022-.13-.068-.258-.139-.383-.068-.125-.171-.235-.307-.329-.137-.094-.316-.158-.538-.192-.302-.047-.565-.018-.788.087-.223.102-.351.259-.383.471-.028.183.017.342.135.474.119.133.324.258.615.376l.841.334c.487.194.835.432 1.046.713.21.281.285.615.226 1.003-.051.329-.191.607-.421.835-.227.226-.521.386-.882.479-.358.093-.758.106-1.201.038-.614-.094-1.095-.302-1.443-.624-.348-.324-.528-.735-.542-1.234l1.057.001c.023.279.124.503.302.672.179.166.43.274.751.323.35.054.641.025.873-.088.232-.116.365-.28.397-.491.026-.172-.016-.326-.126-.462-.109-.136-.289-.254-.542-.354l-.897-.346c-.494-.196-.844-.44-1.05-.732-.204-.292-.276-.633-.216-1.024.05-.324.184-.593.402-.808.219-.215.498-.366.838-.453.34-.089.716-.102 1.128-.038.593.091 1.04.291 1.341.601.301.307.473.683.517 1.128zm2.991 4.818c-.54-.083-.988-.27-1.343-.561-.352-.293-.602-.667-.749-1.121-.144-.456-.173-.968-.085-1.537.086-.562.267-1.041.542-1.438.278-.396.625-.685 1.04-.867.418-.182.882-.234 1.391-.156.31.048.602.145.877.292s.511.348.708.602c.197.255.336.568.415.938.08.368.082.801.005 1.299l-.058.378-4.361-.67.123-.8 3.315.509c.043-.281.024-.538-.057-.772-.081-.237-.215-.434-.403-.592-.185-.158-.416-.258-.692-.301-.3-.046-.573-.012-.82.101-.244.111-.444.276-.602.493-.155.215-.253.459-.295.733l-.096.625c-.057.367-.04.688.049.965.091.277.243.502.455.673.213.17.476.278.788.326.202.031.391.031.566 0 .176-.034.334-.1.473-.198s.254-.228.345-.39l.983.338c-.127.285-.312.523-.556.715-.241.19-.528.322-.862.398-.33.073-.696.079-1.096.018zm8.304-3.082-.994.023c-.022-.13-.068-.258-.139-.384-.068-.125-.171-.234-.308-.328-.136-.094-.315-.158-.537-.193-.302-.046-.565-.017-.788.088-.223.102-.351.259-.383.471-.029.183.017.341.135.474.119.133.324.258.615.376l.841.334c.487.194.835.432 1.045.713.211.281.286.615.226 1.003-.05.329-.19.607-.42.835-.228.226-.521.385-.882.479-.358.093-.758.106-1.201.038-.614-.094-1.096-.302-1.443-.624-.348-.324-.528-.735-.542-1.235l1.056.002c.023.279.124.503.303.671.179.167.429.275.751.324.35.054.641.024.873-.089.232-.115.364-.279.397-.491.026-.171-.016-.325-.127-.462-.108-.136-.288-.253-.541-.353l-.897-.347c-.494-.195-.844-.439-1.051-.731-.203-.292-.275-.634-.215-1.024.05-.324.184-.593.402-.808s.497-.366.837-.453c.341-.089.717-.102 1.129-.039.592.091 1.039.292 1.34.601.302.307.474.684.518 1.129z" fill="#212121"/><path d="m157.299 151.851c.163-1.023 1.124-1.717 2.146-1.551l71.71 11.643c1.023.166 1.719 1.129 1.556 2.152l-10.945 68.57-75.412-12.244z" fill="#fff"/><path d="m157.299 151.851c.163-1.023 1.124-1.717 2.146-1.551l71.71 11.643c1.023.166 1.719 1.129 1.556 2.152l-10.945 68.57-75.412-12.244z" fill="#000" fill-opacity=".01"/><circle cx="188.326" cy="193.357" fill="#cef9e3" fill-opacity=".6" r="21.9816"/><rect fill="#fdfdfd" height="19.7835" rx="2.19816" transform="matrix(.98839669 .15189464 -.15189464 .98839669 30.650729 -25.835369)" width="10.9908" x="184.426" y="187.701"/><path d="m193.62 206.916c.146-1.844.37-3.676.607-5.511.286-2.209.437-4.439.655-6.663.098-1.016.25-2.033.323-3.061.145-1.261-.356-2.508-1.332-3.317-.141-.119-.272-.25-.386-.375-.061-.062-.168-.145-.159-.206.076-.495-.179-1.059.4-1.446.395-.263.401-.649.162-1.059l-.175-.245c.065-.009.131-.012.197-.009.433.066.464.071.587-.355h-.001c.09-.314.15-.637.179-.963.081-.525.061-1.062.133-1.588.16-1.042.113-1.112-.888-1.47l-.089-.054c-.045-.11-.076-.226-.093-.343-.098-1.188-.029-2.383.203-3.551.236-1.169-.03-2.383-.733-3.344-.116-.2-.287-.362-.494-.465s-.439-.143-.668-.114c-.188.015-.377.017-.565.007-.46-.009-.909.148-1.265.44-.628.523-.999 1.293-1.016 2.11-.091.595-.101 1.207-.21 1.799-.082.767-.311 1.51-.673 2.19-.13.263-.404.424-.697.408-.359.009-.717.042-1.071.102.082 1.346-.346 2.573-.669 3.719.25.483.706.256 1.005.448-.462.694-.447.687-.119 1.409v-.001c.073.183.096.381.067.575-.04.234-.097.464-.172.689-.905.265-1.706.803-2.295 1.54-.515.669-.837 1.466-.931 2.306-.113 1.405-.227 2.809-.314 4.213-.167 2.448-.483 4.882-.946 7.29-.346 1.632-.486 3.3-.416 4.967.051.79.238 1.077.983 1.307.193.058.389.103.587.135 1.391.214 2.783.428 4.165.668.867.133 1.724.331 2.589.478.649.121 1.316.105 1.958-.045.369-.065.688-.296.864-.627.355-.615.596-1.288.714-1.988zm-.047-25.9c.861.173.857.194.75 1.067-.077.503-.068 1.02-.115 1.529l-.144.942-1.19-.312c.134-1.077.268-2.15.405-3.249.119.009.207.01.294.023zm-4.157-3.693c.12-.665.205-1.336.255-2.01.021-.821.462-1.574 1.167-1.994.502-.228 1.073-.257 1.596-.083.204.079.373.228.477.42.592.894.803 1.987.585 3.037-.307 1.234-.364 2.518-.167 3.774l-4.809-.722c.678-.74.71-1.615.896-2.422zm2.986 6.81-.54-.003c.153-1.141.298-2.234.453-3.383l.511.078c-.154 1.119-.29 2.205-.424 3.308zm-6.129-.525c.325-1.168.787-2.239.642-3.435 1.542-.059 3.084.09 4.586.444-.122 1.137-.237 2.239-.362 3.393-1.566-.139-3.151-.623-4.866-.402zm.741.949c.076-.179.17-.356.31-.632l5.734.821.45 1.175c-.471-.17-.84-.311-1.182-.426h.001c-1.505-.456-3.085-.606-4.648-.44-.109.016-.219.026-.329.03-.124-.001-.239-.066-.302-.174s-.064-.24-.003-.349zm5.492 24.01c-.111.352-.423.473-.763.549-.634.097-1.28.07-1.904-.08-1.546-.269-3.093-.569-4.638-.851l-1.568-.242c-.182-.028-.364-.056-.538-.109-.755-.197-.899-.414-.908-1.198.021-1.244.14-2.484.357-3.709.491-3.138.845-6.314 1.036-9.498.06-1.173.239-2.337.534-3.473.308-1.19 1.124-2.183 2.231-2.715.705-.029.793-.598.954-1.128.049-.175.089-.351.149-.568 1.864-.06 3.722-.112 5.466.69-.028.44-.059.848-.079 1.263-.017.278.097.548.31.728.279.261.526.561.805.826.644.617.995 1.479.967 2.371-.01.822-.063 1.643-.161 2.46-.099.962-.233 1.924-.367 2.881-.247 1.815-.512 3.623-.759 5.438-.236 1.538-.394 3.087-.635 4.627-.118.591-.282 1.172-.489 1.738z" fill="#333"/><rect fill="#9abdff" height="12.0899" rx="2.19816" transform="matrix(.98839669 .15189464 -.15189464 .98839669 31.340928 -25.846507)" width="8.79265" x="184.844" y="192.213"/><path d="m157.299 151.851c.163-1.023 1.124-1.717 2.146-1.551l71.71 11.643c1.023.166 1.719 1.129 1.556 2.152l-10.945 68.57-75.412-12.244z" stroke="#d2d3d5" stroke-width=".535841"/><rect fill="#fff" height="9.12519" rx="1.09908" transform="matrix(.988015 .154355 -.171343 .985211 244.073 179.451)" width="85.451"/><rect fill="#f2f2f2" height="9.12519" rx="1.09908" transform="matrix(.988015 .154355 -.171343 .985211 244.073 179.451)" width="85.451"/><rect fill="#fff" height="9.12519" rx="1.09908" transform="matrix(.988015 .154355 -.171343 .985211 241.69 194.266)" width="85.451"/><rect fill="#f2f2f2" height="9.12519" rx="1.09908" transform="matrix(.988015 .154355 -.171343 .985211 241.69 194.266)" width="85.451"/><rect fill="#fff" height="9.12519" rx="1.09908" transform="matrix(.988015 .154355 -.171343 .985211 239.33 208.941)" width="53.9805"/><rect fill="#f2f2f2" height="9.12519" rx="1.09908" transform="matrix(.988015 .154355 -.171343 .985211 239.33 208.941)" width="53.9805"/><path d="m343.603 181.819c.187-1.169 1.285-1.962 2.453-1.772l77.709 12.666c1.168.19 1.964 1.292 1.778 2.461l-11.771 73.935-81.94-13.356z" fill="#fff"/><path d="m343.603 181.819c.187-1.169 1.285-1.962 2.453-1.772l77.709 12.666c1.168.19 1.964 1.292 1.778 2.461l-11.771 73.935-81.94-13.356z" fill="#000" fill-opacity=".01"/><g fill="#fff"><rect height="2.54383" rx="1.27191" transform="matrix(.988391 .151929 -.151874 .9884 351.177 194.026)" width="62.3238"/><path d="m350.774 208.541c.105-.685.746-1.155 1.431-1.05l45.895 7.055c.352.054.593.383.539.734-.053.345-.371.584-.717.54l-46.065-5.843c-.701-.089-1.19-.738-1.083-1.436z"/><rect height="1.27191" rx=".635957" transform="matrix(.988391 .151929 -.151874 .9884 344.31 239.296)" width="41.9732"/><rect height="1.27191" rx=".635957" transform="matrix(.988391 .151929 -.151874 .9884 342.957 248.097)" width="41.9732"/><path d="m143.635 236.779c.165-1.022 1.127-1.718 2.15-1.553l171.702 27.619c1.023.165 1.718 1.127 1.554 2.149l-4.881 30.342-175.406-28.215z"/></g><path d="m143.635 236.779c.165-1.022 1.127-1.718 2.15-1.553l171.702 27.619c1.023.165 1.718 1.127 1.554 2.149l-4.881 30.342-175.406-28.215z" fill="#000" fill-opacity=".01"/><path d="m187.742 262.937 1.106-7.317 1.326.201-.939 6.206 3.223.487-.168 1.111zm5.699.862 1.106-7.317 4.759.719-.168 1.111-3.434-.519-.3 1.987 3.187.482-.168 1.111-3.187-.482-.302 1.997 3.462.524-.168 1.111zm7.05 1.066-1.414-.214 3.682-6.928 1.636.248 1.474 7.707-1.415-.214-1.075-6.112-.057-.009zm.481-2.862 3.858.583-.161 1.065-3.858-.583zm7.11-3.475 1.034 6.047.075.012 2.771-5.472 1.458.22-3.686 6.927-1.636-.247-1.47-7.707zm5.196 8.27 1.106-7.317 4.759.719-.168 1.111-3.434-.519-.3 1.987 3.187.482-.168 1.111-3.187-.482-.302 1.997 3.462.524-.168 1.111zm9.546 1.443-1.415-.214 3.682-6.927 1.637.247 1.473 7.707-1.415-.214-1.075-6.112-.057-.008zm.48-2.862 3.859.584-.161 1.064-3.859-.583zm8.357 4.198 1.106-7.317 2.744.415c.562.085 1.019.254 1.37.507.354.253.602.571.744.953.145.38.182.803.111 1.27-.071.469-.232.861-.484 1.176-.25.314-.582.535-.996.665-.414.127-.902.149-1.464.064l-1.955-.296.167-1.1 1.775.268c.329.05.605.045.828-.014.224-.061.399-.172.526-.333.129-.163.214-.375.253-.634.039-.26.021-.489-.053-.688-.075-.201-.209-.365-.405-.492-.194-.13-.457-.219-.788-.269l-1.215-.184-.939 6.209zm4.281-2.744 1.31 3.589-1.479-.223-1.278-3.585zm2.262 3.733 1.106-7.317 4.759.72-.168 1.111-3.433-.519-.3 1.986 3.186.482-.168 1.111-3.186-.482-.302 1.998 3.462.523-.168 1.111zm8.197-6.245 1.033 6.047.075.012 2.772-5.472 1.457.22-3.685 6.927-1.637-.247-1.47-7.707zm7.627 1.153-1.107 7.317-1.325-.2 1.106-7.317zm.329 7.534 1.106-7.317 4.759.72-.168 1.111-3.434-.519-.3 1.986 3.187.482-.168 1.111-3.187-.482-.302 1.997 3.462.524-.168 1.111zm7.651 1.157-.959-7.629 1.426.215.505 5.576.068.011 2.22-5.165 1.297.197.598 5.594.065.009 2.131-5.181 1.426.215-3.171 7.005-1.308-.197-.689-5.356-.057-.009-2.244 4.913z" fill="#212121"/><path d="m143.635 236.779c.165-1.022 1.127-1.718 2.15-1.553l171.702 27.619c1.023.165 1.718 1.127 1.554 2.149l-4.881 30.342-175.406-28.215z" stroke="#d2d3d5" stroke-width=".535841"/><path d="m137.498 274.927c.165-1.022 1.127-1.718 2.15-1.554l171.702 27.62c1.023.164 1.719 1.127 1.554 2.149l-3.27 20.329-175.406-28.215z" fill="#fff"/><path d="m137.498 274.927c.165-1.022 1.127-1.718 2.15-1.554l171.702 27.62c1.023.164 1.719 1.127 1.554 2.149l-3.27 20.329-175.406-28.215z" fill="#000" fill-opacity=".01"/><path d="m137.498 274.927c.165-1.022 1.127-1.718 2.15-1.554l171.702 27.62c1.023.164 1.719 1.127 1.554 2.149l-3.27 20.329-175.406-28.215z" stroke="#d2d3d5" stroke-width=".535841"/><path d="m131.032 323.24c.163-1.023 1.125-1.718 2.147-1.552l71.71 11.643c1.022.166 1.719 1.13 1.555 2.153l-11.892 74.506-75.412-12.244z" fill="#fff"/><path d="m131.032 323.24c.163-1.023 1.125-1.718 2.147-1.552l71.71 11.643c1.022.166 1.719 1.13 1.555 2.153l-11.892 74.506-75.412-12.244z" fill="#000" fill-opacity=".01"/><path d="m131.032 323.24c.163-1.023 1.125-1.718 2.147-1.552l71.71 11.643c1.022.166 1.719 1.13 1.555 2.153l-11.892 74.506-75.412-12.244z" stroke="#d2d3d5" stroke-width=".535841"/></g></g><path d="m160.067 51.7538-.207-.0317-.031.2065-61.714 401.5784c-.5785 3.764 2.004 7.284 5.768 7.862l192.234 29.543c3.764.578 7.284-2.004 7.862-5.768l61.714-401.5787.032-.2065-.207-.0317z" stroke="#212121" stroke-width=".417887"/><circle cx="411.857" cy="112.857" fill="#212121" r="17.8568"/><g clip-path="url(#e)"><path clip-rule="evenodd" d="m403.991 104.995c0-.483.393-.874.877-.874h1.316c.726 0 1.315.587 1.315 1.311v.49l10.988.793c.766.048 1.328.736 1.22 1.493l-.756 5.274c-.093.646-.648 1.125-1.302 1.125h-10.15v1.748h8.776c1.453 0 2.631 1.174 2.631 2.621 0 1.448-1.178 2.622-2.631 2.622s-2.631-1.174-2.631-2.622c0-.306.053-.6.15-.873h-4.691c.097.273.15.567.15.873 0 1.448-1.178 2.622-2.631 2.622s-2.631-1.174-2.631-2.622c0-1.141.732-2.112 1.754-2.472v-9.753c0-.005 0-.01 0-.015v-.867h-.877c-.484 0-.877-.391-.877-.874zm3.508 2.678v5.187h9.769l.635-4.43zm7.899 11.303c0-.482.393-.873.877-.873s.877.391.877.873c0 .483-.393.874-.877.874s-.877-.391-.877-.874zm-9.653 0c0-.482.393-.873.877-.873s.877.391.877.873c0 .483-.393.874-.877.874s-.877-.391-.877-.874z" fill="#fff" fill-rule="evenodd"/></g><circle cx="450.166" cy="249.166" fill="#212121" r="29.166"/><path d="m438.448 238.111-.852 5.112c-.145.87.526 1.662 1.408 1.662h1.274c.811 0 1.552-.458 1.915-1.183l.835-1.671.836 1.671c.362.725 1.104 1.183 1.914 1.183h1.636c.811 0 1.552-.458 1.915-1.183l.835-1.671.836 1.671c.363.725 1.104 1.183 1.915 1.183h1.635c.811 0 1.553-.458 1.915-1.183l.836-1.671.835 1.671c.363.725 1.104 1.183 1.915 1.183h1.274c.882 0 1.553-.792 1.408-1.662l-.852-5.112c-.172-1.033-1.065-1.789-2.112-1.789h-19.209c-1.047 0-1.94.756-2.112 1.789z" fill="#fff"/><path d="m461.583 247.74h-22.837v12.132c0 1.182.959 2.141 2.141 2.141h4.996v-9.991h8.563v9.991h4.996c1.182 0 2.141-.959 2.141-2.141z" fill="#fff"/><circle cx="486.072" cy="147.072" fill="#212121" r="23.0723"/><g clip-path="url(#f)"><path clip-rule="evenodd" d="m476.475 138.039c-.935 0-1.694.759-1.694 1.694v12.42c0 .935.759 1.693 1.694 1.693h.564c0 1.871 1.517 3.388 3.388 3.388 1.87 0 3.387-1.517 3.387-3.388h4.516c0 1.871 1.517 3.388 3.387 3.388 1.871 0 3.387-1.517 3.387-3.388h.565c.935 0 1.694-.758 1.694-1.693v-3.796c0-.307-.084-.608-.242-.871l-3.142-5.237c-.306-.51-.857-.822-1.452-.822h-3.068v-1.694c0-.935-.758-1.694-1.693-1.694zm15.242 16.936c-.623 0-1.129-.505-1.129-1.129 0-.623.506-1.129 1.129-1.129.624 0 1.129.506 1.129 1.129 0 .624-.505 1.129-1.129 1.129zm-12.419-1.129c0 .624.505 1.129 1.129 1.129.623 0 1.129-.505 1.129-1.129 0-.623-.506-1.129-1.129-1.129-.624 0-1.129.506-1.129 1.129zm14.941-6.774h-4.78v-3.387h2.748z" fill="#fff" fill-rule="evenodd"/></g><path d="m299 163.807c0-3.76 3.047-6.807 6.807-6.807h120.386c3.76 0 6.807 3.047 6.807 6.807v26.389c0 3.759-3.047 6.807-6.807 6.807h-127.193z" fill="#212121"/><g fill="#fff"><path d="m319.001 167.21 2.82 5.91 6.492.856-4.749 4.508 1.193 6.439-5.756-3.124-5.755 3.124 1.192-6.439-4.749-4.508 6.492-.856z"/><path d="m342.5 167.21 2.82 5.91 6.493.856-4.75 4.508 1.193 6.439-5.756-3.124-5.755 3.124 1.192-6.439-4.749-4.508 6.492-.856z"/><path d="m366 167.21 2.82 5.91 6.493.856-4.75 4.508 1.193 6.439-5.756-3.124-5.755 3.124 1.192-6.439-4.749-4.508 6.492-.856z"/><path d="m389.499 167.21 2.82 5.91 6.493.856-4.75 4.508 1.193 6.439-5.756-3.124-5.755 3.124 1.192-6.439-4.749-4.508 6.492-.856z"/><path d="m412.998 167.21 2.82 5.91 6.493.856-4.75 4.508 1.193 6.439-5.756-3.124-5.755 3.124 1.192-6.439-4.749-4.508 6.492-.856z"/></g></g><rect height="347" rx="9.5" stroke="#212121" width="592" x=".5" y=".5"/></svg>