<svg fill="none" height="30" viewBox="0 0 83 30" width="83" xmlns="http://www.w3.org/2000/svg"><g fill="#212121"><path d="m6.77039 24.4091c4.25271 0 6.73641-2.5909 6.73641-7.0568v-17.3523h-4.08269v17.1477c0 2.3523-.85055 3.4773-2.6197 3.4773s-2.72176-1.0909-2.72176-3.375v-6.0682h-4.08265v6.2727c0 4.5341 2.34752 6.9546 6.77039 6.9546z"/><path d="m20.6942 24.3068c2.5176 0 3.9806-1.5341 4.8992-4.7045h.6124l-1.0547 4.2613h3.8785v-16.53405h-3.8785v9.10225c0 2.6591-1.1228 4.2955-2.9259 4.2955-1.497 0-2.2115-.9546-2.2115-2.8978v-10.49995h-3.8785v11.42045c0 3.6477 1.531 5.5568 4.559 5.5568z"/><path d="m35.9369 23.8636v-9.1022c0-2.6591 1.1567-4.3296 3.0619-4.3296 1.5991 0 2.4156.9887 2.4156 2.9318v10.5h3.8785v-11.4545c0-3.61365-1.633-5.55683-4.7631-5.55683-2.5856 0-4.1166 1.56819-5.0693 4.70453h-.6124l1.0888-4.22725h-3.8786v16.53405z"/><path d="m51.9881 4.84091v-4.363637h-4.0827v4.363637zm-.1021 19.02269v-16.53405h-3.8785v16.53405z"/><path d="m58.7981 30v-6.1364l-1.0887-4.2613h.6124c.8505 3.1022 2.4155 4.7045 4.9332 4.7045 1.9052 0 3.4362-.7841 4.4569-2.2841 1.0206-1.4659 1.5309-3.6136 1.5309-6.4432 0-2.7954-.5103-4.9431-1.5309-6.40905-1.0207-1.49999-2.5517-2.31818-4.4569-2.31818-2.5177 0-4.0827 1.63637-4.9332 4.70453h-.6124l1.0887-4.22725h-3.8785v22.67045zm3.1981-9.1364c-.9867 0-1.8032-.4431-2.3476-1.2272-.6124-.8523-.9186-2.2159-.9186-4.0569 0-1.8068.3062-3.1704.9186-4.0227.5444-.7841 1.3609-1.2273 2.3476-1.2273 1.0206 0 1.8371.4432 2.3815 1.2273.5784.8864.9186 2.2159.9186 4.0227 0 1.841-.3402 3.1705-.9186 4.0569-.5444.7841-1.3609 1.2272-2.3815 1.2272z"/><path d="m78.245 17.4971-.4493 4.0521 4.0889-1.1481.3594 2.769-3.7294.2701 2.4489 3.2643-2.4938 1.3282-1.7075-3.4444-1.5052 3.4219-2.5837-1.3057 2.4264-3.2643-3.707-.2926.4269-2.7465 3.999 1.1481-.4493-4.0521z"/></g></svg>