<svg fill="none" height="382" viewBox="0 0 791 382" width="791" xmlns="http://www.w3.org/2000/svg"><path d="m790.998 382 .002-382.00006104-74.153 11.45076104c-16.385 2.5301-33.061 2.5301-49.446-.0001l-49.428-7.63281c-16.386-2.53024-33.062-2.53024-49.447.00001l-49.428 7.6328c-16.385 2.5302-33.062 2.5303-49.447 0l-49.428-7.63279c-16.385-2.53024-33.062-2.53024-49.447.00001l-49.428 7.63278c-16.385 2.5303-33.062 2.5303-49.447 0l-49.428-7.63277c-16.385-2.53024-33.062-2.53024-49.447 0l-49.428 7.63287c-16.385 2.5302-33.0613 2.5302-49.4465 0l-74.15151918-11.45069188.00001918 381.99999188 74.1516-11.451c16.3851-2.53 33.0614-2.53 49.4464 0l49.428 7.633c16.385 2.53 33.062 2.53 49.447 0l49.428-7.633c16.385-2.53 33.061-2.53 49.447 0l49.428 7.633c16.385 2.53 33.061 2.53 49.446 0l49.429-7.633c16.385-2.53 33.061-2.53 49.446 0l49.428 7.633c16.386 2.53 33.062 2.53 49.447 0l49.428-7.633c16.385-2.53 33.062-2.53 49.447 0z" fill="#FFFFF5"></path></svg>