<svg fill="none" height="20" viewBox="0 0 24 20" width="24" xmlns="http://www.w3.org/2000/svg"><path clip-rule="evenodd" d="m24 2.55669c-.8823.39198-1.8319.65596-2.8278.77515 1.0167-.60956 1.7975-1.5743 2.1646-2.72382-.9503.56476-2.0054.97354-3.1261 1.19512-.8984-.956733-2.1791-1.555093-3.5942-1.555093-2.719 0-4.9237 2.204653-4.9237 4.923673 0 .38557.044.76155.128 1.12232-4.09251-.20478-7.72027-2.16545-10.14891-5.14445-.42397.72715-.66636 1.5727-.66636 2.47504 0 1.70788.86794 3.21498 2.19026 4.09813-.80795-.0256-1.5663-.24719-2.231056-.61597v.0616c0 2.38624 1.698286 4.37571 3.949336 4.82931-.41277.112-.84794.1728-1.29671.1728-.31758 0-.62636-.0312-.92714-.0888.62636 1.9558 2.44544 3.3797 4.59969 3.4197-1.68468 1.3199-3.80774 2.1079-6.11479 2.1079-.398373 0-.790346-.0232-1.17512-.0696 2.17905 1.3967 4.76688 2.2126 7.5475 2.2126 9.0562 0 14.0087-7.5027 14.0087-14.00862 0-.21359-.004-.42637-.0144-.63675.9631-.69596 1.7982-1.5631 2.4582-2.55024z" fill="#212121" fill-rule="evenodd"/></svg>